<svg width="110" height="38" viewBox="0 0 110 38" fill="none" xmlns="http://www.w3.org/2000/svg">
<path d="M79.0176 36.2876V32.0894L80.3914 31.7772C80.7036 31.7435 80.7709 31.6379 80.7709 31.2968V17.8662C80.7709 17.5924 80.7036 17.4868 80.3914 17.3859L79.0176 17.0448V12.8706H89.4844V17.0737L88.1058 17.4195C87.7984 17.5204 87.7263 17.6261 87.7263 17.8999V31.316C87.7263 31.6234 87.7984 31.6955 88.0722 31.7964L89.4844 32.1758V36.3068L79.0176 36.2876Z" fill="black"/>
<path d="M59.9616 36.2878L54.1254 17.8135C54.105 17.7336 54.0612 17.6616 53.9995 17.6069C53.9379 17.5521 53.8613 17.517 53.7795 17.5061L51.959 17.1987V12.938H63.7372V17.1987L62.3634 17.6118C62.2305 17.6293 62.1085 17.6944 62.0201 17.7952C61.9318 17.8959 61.883 18.0254 61.883 18.1594C61.9065 18.5441 61.9758 18.9247 62.0895 19.293L64.597 29.1834H64.7651L67.2629 19.3074C67.3729 18.9382 67.4421 18.5581 67.4695 18.1738C67.4615 18.0368 67.4057 17.9069 67.3117 17.8068C67.2178 17.7068 67.0917 17.6428 66.9555 17.6262L65.6153 17.2131V12.9524H77.0861V17.1795L75.1983 17.5541C75.113 17.5713 75.0347 17.6133 74.9731 17.6749C74.9116 17.7364 74.8696 17.8147 74.8524 17.9L69.1891 36.3022L59.9616 36.2878Z" fill="black"/>
<path d="M91.8232 34.6016C91.846 32.4713 91.9968 30.3443 92.2748 28.2322H97.9093L98.4617 30.9173C99.1835 31.1597 99.9387 31.2878 100.7 31.2968C102.007 31.2968 102.866 30.7108 102.866 29.7789C102.866 28.6116 101.387 28.1649 99.6289 27.6461C96.1176 26.5798 91.9193 25.2012 91.9193 19.7588C91.9193 14.3164 95.4979 12.5295 100.907 12.5295C104.351 12.5295 106.589 13.423 108.996 14.5614C109.03 16.576 108.905 18.5902 108.621 20.585H102.982L102.708 18.2121C102.162 17.9824 101.576 17.8648 100.984 17.8662C99.7106 17.8662 98.8844 18.1736 98.8844 19.1728C98.8844 20.3448 100.47 21.0365 102.189 21.6177C105.552 22.7177 109.836 24.2357 109.836 29.2313C109.836 34.2269 106.666 36.6671 100.676 36.6671C97.608 36.648 94.583 35.9422 91.8232 34.6016Z" fill="black"/>
<path d="M13.7716 12.938V17.1891L15.4576 17.6694C16.159 17.8568 16.1493 18.217 15.7843 19.3074L12.5179 29.2074H12.2825L9.7607 19.3074C9.47729 18.2507 9.4821 17.8087 10.0873 17.6694L11.879 17.1891V12.938H0V17.1891L1.9214 17.5638C2.10873 17.6118 2.15197 17.7031 2.2 17.8904L7.96419 36.2878H16.2502L19.1323 26.5127L22.0144 36.2734H30.3245L36.0886 17.876C36.1107 17.7956 36.1533 17.7223 36.2122 17.6633C36.2712 17.6044 36.3445 17.5618 36.4249 17.5397L38.2838 17.1747V12.9236H26.4144V17.1747L28.2061 17.655C28.8162 17.7943 28.8162 18.2362 28.5328 19.293L26.0109 29.193H25.7803L22.4948 19.3074C22.1345 18.217 22.1201 17.8664 22.8214 17.6694L24.5074 17.1891V12.938H13.7716Z" fill="black"/>
<path d="M43.7168 25.7392H46.8246V24.8553C46.8246 23.8946 46.2771 23.3854 45.2875 23.3854C44.298 23.3854 43.7168 23.8994 43.7168 24.8553V25.7392ZM37.0928 29.7693V25.2636C37.0928 21.1326 40.3015 18.3994 45.153 18.3994C50.0046 18.3994 53.2085 21.1326 53.2085 25.2636V29.1064H43.7168V30.0287C43.7168 31.0182 44.8792 31.6667 46.1185 31.6667C47.3578 31.6667 48.5779 31.1191 48.7797 30.2689H53.1845V33.6313C51.412 35.716 48.7124 36.6383 45.912 36.6383C40.6474 36.6335 37.0928 33.9003 37.0928 29.7693Z" fill="black"/>
<path d="M84.4028 10.7861C86.4455 10.7861 88.1015 9.13009 88.1015 7.08736C88.1015 5.04463 86.4455 3.38867 84.4028 3.38867C82.3601 3.38867 80.7041 5.04463 80.7041 7.08736C80.7041 9.13009 82.3601 10.7861 84.4028 10.7861Z" fill="black"/>
</svg>
